<!--<svg version="1.1" xmlns="http://www.w3.org/2000/svg" xmlns:xlink="http://www.w3.org/1999/xlink" x="0px" y="0px"-->
<!--	 width="24px" height="24px" viewBox="0 0 24 24">-->
<!--<style type="text/css">-->
<!--	.st0{fill:#515151;}-->
<!--</style>-->
<!--<path class="st0" d="M1.7,22.3c5.7-5.7,11.3-5.7,17,0c3.3-3.3,3.5-5.3,0.8-6c2.7,0.7,3.5-1.1,2.3-5.6s-3.3-5.2-6.3-2.1-->
<!--	c3-3,2.3-5.2-2.1-6.3S7,1.8,7.7,4.6C7,1.8,5,2.1,1.7,5.3C7.3,11,7.3,16.7,1.7,22.3"/>-->
<!--</svg>-->
<svg version="1.0" xmlns="http://www.w3.org/2000/svg"
 width="862.000000pt" height="862.000000pt" viewBox="0 0 862.000000 862.000000"
 preserveAspectRatio="xMidYMid meet">
<metadata>
Created by potrace 1.11, written by Peter Selinger 2001-2013
</metadata>
<g transform="translate(0.000000,862.000000) scale(0.100000,-0.100000)"
fill="#000000" stroke="none">
<path d="M0 4310 l0 -4060 4310 0 4310 0 0 4060 0 4060 -4310 0 -4310 0 0
-4060z"/>
</g>
</svg>